<svg xmlns="http://www.w3.org/2000/svg" viewBox="0 0 437.09 137.13"><path d="M32.75 52.79V25.36l109.84 104.03H146V36.5c0-20.91 6.99-27.76 20.98-33.08V0H121.1v3.43c13.99 5.31 20.98 12.17 20.98 33.08v61.35L45.03 4.63C40.59.51 39.4 0 36.5 0H0v3.43c8.02.86 12.79 3.08 24.39 14.4l4.43 4.28V52.8h3.93zM23.93 62.53c.91-.05 1.36-.07 2.27-.12.32-.02.49.14.5.47.01.22.01.33.01.55.01.33-.15.51-.48.52-1.39.07-2.09.11-3.48.18-.32.02-.49-.14-.49-.47v-5.98c0-.33.16-.51.47-.52.27-.01.41-.02.68-.04.31-.02.47.14.48.47.02 1.98.02 2.96.04 4.94zM31.19 63.9h-.64c-.37 0-.53-.11-.66-.46-.91-2.43-1.36-3.65-2.21-6.08-.09-.25.06-.47.31-.47.31 0 .47 0 .78-.01.36 0 .51.11.63.46.6 1.73.9 2.59 1.53 4.32.61-1.74.91-2.6 1.5-4.34.12-.36.27-.47.63-.47h.69c.24 0 .4.22.31.47-.85 2.44-1.29 3.67-2.19 6.11-.15.36-.31.47-.68.47z"></path><path d="M36.72 63.92c-.36-.02-.54-.03-.9-.04-.21-.01-.34-.25-.21-.43.84-1.25 1.25-1.87 2.06-3.12-.71-1.2-1.06-1.81-1.75-3.01-.11-.19.02-.42.22-.41l.94.05c.39.02.52.11.71.46l1 1.78c.41-.67.61-1.01 1.01-1.68.2-.34.33-.41.72-.39.35.02.53.03.88.04.21.01.33.25.22.43-.71 1.13-1.07 1.7-1.8 2.83.8 1.33 1.2 1.99 2.02 3.32.12.19-.01.42-.22.41l-.98-.05c-.4-.02-.54-.11-.74-.46-.49-.84-.73-1.26-1.2-2.1l-1.23 1.98c-.21.33-.35.41-.75.39zM11 77.84c-.27.04-.4.05-.67.09-.39.05-.56-.04-.71-.37-1.05-2.29-1.56-3.43-2.54-5.72-.1-.23.05-.47.31-.51.33-.04.5-.07.82-.11.38-.05.54.04.68.37.68 1.63 1.04 2.44 1.75 4.07.58-1.8.87-2.7 1.43-4.51.11-.37.27-.5.64-.56l.72-.1c.26-.04.42.16.34.42-.82 2.54-1.24 3.82-2.09 6.36-.13.39-.29.52-.68.57zM16.92 77.12c-.34.03-.51-.13-.51-.46-.03-2.39-.04-3.58-.06-5.97 0-.33.16-.51.49-.54 1.57-.13 2.36-.2 3.93-.33.32-.03.5.13.51.46.01.2.01.3.02.5.01.33-.15.51-.48.54-1.09.09-1.64.14-2.74.23.01.48.01.72.02 1.2.76-.06 1.14-.09 1.9-.16.33-.03.5.13.51.46.01.17.01.26.01.44.01.33-.16.51-.49.54-.76.06-1.15.09-1.91.16.01.54.02.81.03 1.34 1.12-.09 1.68-.14 2.79-.23.33-.03.51.13.52.46.01.2.01.3.02.5.01.33-.15.51-.49.54-1.63.12-2.45.19-4.07.32zM25.37 76.56c-.29.01-.44.01-.73.02-.33.01-.51-.15-.51-.48.01-2.39.01-3.59.02-5.99 0-.33.17-.5.49-.51.91-.03 1.36-.04 2.27-.07 1.48-.05 2.44.8 2.46 2.1.02.83-.4 1.49-1.13 1.85.55 1 .83 1.51 1.4 2.51.12.21-.02.44-.26.45-.36.01-.53.02-.89.03-.4.01-.55-.07-.74-.43-.45-.86-.68-1.29-1.12-2.15-.31.01-.47.01-.78.03 0 .85.01 1.28.01 2.14.01.31-.16.49-.49.5zm1.53-5.63c-.42.01-.63.02-1.05.03 0 .63 0 .95.01 1.58.42-.01.63-.02 1.05-.03.44-.01.75-.34.74-.8 0-.48-.32-.79-.75-.78zM32.64 76.43c-.33 0-.5-.17-.5-.5.01-2.39.02-3.59.03-5.99 0-.33.17-.5.49-.5.29 0 .43 0 .71.01.32 0 .49.17.49.5.01 2.39.01 3.59.02 5.99 0 .33-.17.5-.5.5-.29 0-.44-.01-.74-.01zM38.7 76.58c-.33-.02-.5-.19-.5-.52.03-1.97.04-2.96.07-4.93-.62-.03-.94-.04-1.56-.07-.33-.02-.49-.19-.48-.52.01-.22.01-.33.01-.55.01-.33.18-.49.5-.48 1.91.09 2.87.14 4.79.23.32.01.49.19.49.52v.55c0 .33-.17.49-.49.48-.62-.03-.94-.04-1.56-.07-.01 1.97-.02 2.96-.03 4.93 0 .33-.18.49-.51.48-.29-.03-.43-.04-.73-.05zM43.93 76.87c-.3-.03-.44-.04-.74-.07-.26-.02-.42-.26-.31-.5 1.06-2.34 1.57-3.51 2.56-5.86.15-.35.31-.44.68-.4.28.03.42.04.7.07.37.03.53.16.66.53.9 2.52 1.36 3.78 2.3 6.29.1.26-.07.46-.33.44-.34-.03-.51-.05-.85-.08-.39-.04-.55-.16-.68-.53-.12-.36-.19-.54-.31-.9-1.06-.1-1.59-.14-2.65-.24l-.35.85c-.12.34-.29.43-.68.4zm3.23-2.41c-.31-.93-.47-1.39-.78-2.32-.34.87-.52 1.3-.87 2.17l1.65.15zM14.52 89.9c-.28.03-.42.04-.7.07-.4.04-.57-.05-.73-.4a266.48 266.48 0 0 1-2.6-5.81c-.11-.24.05-.47.32-.5.34-.03.51-.05.85-.09.39-.04.55.05.7.4.7 1.65 1.06 2.48 1.79 4.14.6-1.79.9-2.68 1.49-4.47.12-.37.28-.5.66-.54.3-.03.45-.05.74-.08.26-.03.44.17.35.43-.85 2.52-1.29 3.79-2.18 6.31-.13.37-.29.5-.69.54zM20.64 89.36c-.35.02-.53-.14-.53-.47-.05-2.39-.07-3.59-.1-5.98-.01-.33.17-.51.5-.53l.74-.05c.34-.02.51.14.52.47l.15 5.98c.01.33-.16.51-.51.53-.31.03-.46.04-.77.05zM26.19 89.1c-.3.01-.45.01-.75.02-.35.01-.52-.16-.52-.49.01-2.39.01-3.59.02-5.99 0-.33.17-.5.51-.51.94-.02 1.41-.04 2.35-.06 1.53-.04 2.52.82 2.55 2.11.02.83-.41 1.49-1.17 1.85.57 1.01.86 1.51 1.44 2.52.12.21-.02.44-.27.45-.37.01-.55.01-.92.02-.42.01-.57-.08-.76-.43-.47-.86-.7-1.29-1.16-2.16-.32.01-.48.01-.81.02 0 .85.01 1.28.01 2.14 0 .33-.17.5-.52.51zm1.58-5.62c-.43.01-.65.02-1.08.03 0 .63 0 .95.01 1.58.44-.01.65-.02 1.09-.03.45-.01.78-.34.77-.8-.01-.48-.34-.79-.79-.78zM34.67 89.03c-.35-.01-.52-.18-.52-.51.02-1.98.02-2.96.04-4.94-.64-.01-.97-.02-1.61-.03-.34-.01-.51-.18-.5-.51 0-.22.01-.33.01-.55.01-.33.18-.5.51-.49 1.98.04 2.97.05 4.95.09.33.01.51.18.51.51 0 .22 0 .33.01.55 0 .33-.17.5-.51.49-.64-.01-.97-.02-1.61-.03v4.94c0 .33-.18.5-.52.49-.3 0-.45 0-.76-.01zM43.44 89.43c-.28-.02-.42-.03-.69-.04-.4-.03-.56-.14-.7-.51-.93-2.49-1.38-3.74-2.26-6.24-.09-.26.08-.46.34-.45l.84.05c.39.03.55.14.67.51.61 1.77.93 2.66 1.56 4.43.7-1.69 1.04-2.53 1.71-4.22.14-.35.3-.45.69-.42l.74.05c.26.02.43.25.33.49-.97 2.37-1.47 3.56-2.5 5.93-.16.35-.33.45-.73.42zM54.08 76.7c.43.04.74-.14.75-.44.01-.24-.13-.42-.41-.63-.27-.2-1.06-.76-1.33-.96-.72-.52-1.08-1.18-1.04-1.92.06-1.16 1.06-1.97 2.38-1.83.64.06 1.28.33 1.76.78.2.19.19.46-.01.68-.06.07-.25.28-.31.35-.21.25-.44.23-.7.03-.29-.23-.57-.36-.81-.38-.4-.04-.64.16-.65.44-.01.26.1.42.41.64.27.2 1.06.76 1.33.96.73.53 1.1 1.2 1.06 1.9-.06 1.28-1.12 1.98-2.49 1.84-.95-.1-1.68-.51-2.19-1.03-.25-.25-.25-.49-.01-.73.07-.07.28-.28.35-.34.22-.23.44-.2.7.02.45.4.83.58 1.21.62zM50.52 88.69c.43.04.73-.14.75-.45.01-.24-.13-.42-.41-.63-.28-.19-1.04-.75-1.31-.95-.71-.51-1.07-1.17-1.02-1.91.07-1.16 1.06-1.98 2.37-1.86.63.06 1.27.32 1.74.76.2.19.19.46-.01.68-.06.07-.24.28-.31.35-.21.25-.44.24-.7.04-.29-.23-.56-.35-.8-.37-.39-.04-.63.17-.65.45-.01.26.1.42.4.64.28.19 1.03.75 1.31.95.72.53 1.08 1.19 1.04 1.89-.06 1.28-1.12 1.99-2.48 1.87-.94-.09-1.66-.49-2.16-1.01-.24-.25-.24-.49 0-.73l.35-.35c.22-.23.44-.21.69.01.45.4.82.58 1.2.62zM32.78 94.36h-3.99c-.51 19.09-7.49 25.64-20.94 30.75v3.43h45.88v-3.43C40.27 120 33.29 113.45 32.78 94.36z"></path><g><path d="m369.47 131.18 8.04-17.83c1.57-3.51 2.09-4.28 3.75-4.71v-1.2l-8.42.01v1.2c2.78.59 3.08 2 1.8 5l-3.23 7.74-4.03-9.09c-.86-2.01-.73-3.16 2.22-3.51v-1.32l-11.24.02v1.32c1.33.34 1.84.89 3 3.28l7.16 15.37-1.19 2.57c-.68 1.5-1.32 2.61-2.04 3.25-.52-1.75-1.5-2.69-3.04-2.69s-2.86 1.03-2.86 3.04 1.63 3.5 3.55 3.5c2.74-.01 4.44-1.38 6.53-5.95m-11.42-5.36-.64-1.37c-1.15.51-2.18.77-3.07.77-2.01 0-2.52-1.02-2.52-2.43l-.02-12.86 5.43-.01v-2.44l-5.43.01-.01-3.97h-.77l-7.68 5.06v1.37l3.12-.01.02 13.97c0 2.78 1.59 4.27 4.71 4.26 2.42 0 4.81-.81 6.86-2.35m-16.23.62c-2.65-.38-3.03-.93-3.04-3.28l-.03-16.36h-2.09l-6.27 4.11v.94l3.03-.01.02 11.32c0 2.35-.42 2.91-3.03 3.3v1.32l11.41-.02v-1.32zm-6.11-22.84c1.79 0 3.24-1.46 3.24-3.3 0-1.62-1.24-2.95-2.91-2.94-1.88 0-3.29 1.46-3.28 3.25 0 1.67 1.24 2.99 2.95 2.99m-7.44 17.91c-.01-3.97-3.3-5.21-6.38-6.18-3.04-.98-5.13-1.61-5.13-3.84 0-1.2.89-2.31 2.64-2.31 2.18 0 4.1 1.32 6.42 3.92l1.11-.51-1.63-5.3h-.68l-.77.64c-1.2-.51-2.56-.81-4.02-.8-4.53.01-7.47 2.62-7.46 6.55.01 3.97 3.3 5.12 6.38 6.14 3.04 1.02 5.13 1.61 5.13 3.88 0 1.41-1.06 2.48-3.11 2.48-2.86.01-5.04-1.87-7.66-5.2l-1.15.43 1.68 6.66h.73l1.24-.9c1.41.68 2.99 1.06 4.74 1.06 4.34-.01 7.92-2.58 7.92-6.72m-22.25 5c-2.78-.42-3.16-1.02-3.17-3.67l-.02-8.8c.85-1.54 1.66-2.65 2.51-3.42 0 1.67 1.16 2.73 2.61 2.73s2.86-1.16 2.86-3.38c0-1.88-1.07-3.03-2.95-3.03-2.09 0-3.71 1.76-5.25 4.24l-.01-4.32h-1.88l-6.19 4.07v.94l2.95-.01.02 11.36c0 2.35-.38 2.95-2.81 3.29v1.32l11.32-.02.01-1.3zm-26.77-11.58c-.01-3.46 1.44-5.51 4.26-5.52 1.97 0 3.21 1.4 3.72 4.18l-7.94 2.75c-.04-.47-.04-.94-.04-1.41m13.39 9.08-1.16-.9a6.476 6.476 0 0 1-4.91 2.23c-3.93.01-6.16-2.98-6.98-6.87l12.81-4.3c-.26-4.53-3.6-7-7.83-6.99-5.94.01-10.29 4.8-10.28 10.74.01 5.9 3.78 10.38 10.4 10.36 4.07.01 6.5-1.79 7.95-4.27m-22.4-10.47c1.57-3.51 2.09-4.28 3.75-4.71v-1.2l-8.42.01v1.2c2.78.59 3.08 2 1.8 5l-3.23 7.74-4.03-9.09c-.86-2.01-.73-3.16 2.22-3.51v-1.32l-11.24.02V109c1.33.34 1.88.89 3 3.28l7.33 15.84h2.22l6.6-14.58zm-19.51 13.06c-2.65-.38-3.04-.93-3.04-3.28l-.03-16.36h-2.09l-6.27 4.11v.94l3.03-.01.02 11.32c0 2.35-.42 2.91-3.03 3.3v1.32l11.41-.02v-1.32zm-6.1-22.84c1.79 0 3.24-1.46 3.24-3.3 0-1.62-1.24-2.95-2.91-2.94-1.88 0-3.29 1.46-3.28 3.25 0 1.67 1.24 2.99 2.95 2.99m-21.54 22.89c-2.44-.34-2.82-.93-2.83-3.28l-.02-9.87c2.13-1.93 3.88-2.87 5.42-2.87 2.09 0 2.69 1.06 2.7 2.99l.02 9.74c0 2.35-.38 2.95-2.81 3.29v1.32l10.98-.02v-1.32c-2.44-.34-2.82-.93-2.83-3.28l-.02-10.21c-.01-3.42-1.46-5.85-5.78-5.84-2.65 0-5.25 1.63-7.81 3.82l-.01-4.1h-1.97l-6.19 4.07v.94l2.95-.01.02 11.36c0 2.35-.38 2.95-2.81 3.29v1.32l10.98-.02.01-1.32zm-46.61-25.04.02 12.82c.01 8.29 4.34 14.05 15.23 14.03s15.2-5.79 15.18-13.91l-.02-10.3c-.01-5 1.4-6.28 3.83-6.97v-1.32l-10.34.02v1.32c2.44.68 3.85 1.96 3.86 6.96l.02 10.3c.01 7.22-3.78 10.56-10.96 10.57-7.13.01-10.99-3.31-11-10.53l-.02-12.99c-.01-3.25.93-3.8 3.62-4.19v-1.41l-12.99.02v1.41c2.71.37 3.57.93 3.57 4.17M423.63 77.23c-2.44-.34-2.82-.93-2.83-3.28l-.02-9.87c2.13-1.93 3.88-2.87 5.42-2.87 2.09 0 2.69 1.06 2.7 2.99l.02 9.74c0 2.35-.38 2.95-2.81 3.29v1.32l10.98-.02v-1.32c-2.44-.34-2.82-.93-2.83-3.28l-.02-10.21c-.01-3.42-1.46-5.85-5.78-5.84-2.65 0-5.25 1.63-7.81 3.82l-.01-4.1h-1.97l-6.19 4.07v.94l2.95-.01.02 11.36c0 2.35-.38 2.95-2.81 3.29v1.32l10.98-.02.01-1.32zm-17 .03c-2.78-.42-3.16-1.02-3.17-3.67l-.02-8.8c.85-1.54 1.66-2.65 2.51-3.42 0 1.67 1.16 2.73 2.61 2.73s2.86-1.16 2.86-3.38c0-1.88-1.07-3.03-2.95-3.03-2.09 0-3.71 1.76-5.25 4.24l-.01-4.32h-1.88l-6.19 4.07v.94l2.95-.01.02 11.36c0 2.35-.38 2.95-2.81 3.29v1.32l11.32-.02.01-1.3zm-26.77-11.58c-.01-3.46 1.44-5.51 4.26-5.52 1.97 0 3.21 1.4 3.72 4.18l-7.94 2.75c-.04-.47-.04-.94-.04-1.41m13.39 9.08-1.16-.9a6.476 6.476 0 0 1-4.91 2.23c-3.93.01-6.16-2.98-6.98-6.87l12.81-4.3c-.26-4.53-3.6-7-7.83-6.99-5.94.01-10.29 4.8-10.28 10.74.01 5.9 3.78 10.38 10.4 10.36 4.07.01 6.5-1.79 7.95-4.27m-19.73 1.96-.64-1.37c-1.15.51-2.18.77-3.07.77-2.01 0-2.52-1.02-2.52-2.43l-.02-12.86 5.43-.01v-2.44l-5.43.01-.01-3.97h-.77l-7.68 5.06v1.37l3.12-.01.02 13.97c0 2.78 1.59 4.27 4.71 4.26 2.42.01 4.81-.81 6.86-2.35m-16.16-4.33c-.01-3.97-3.3-5.21-6.38-6.18-3.04-.98-5.13-1.61-5.13-3.84 0-1.2.89-2.31 2.64-2.31 2.18 0 4.1 1.32 6.42 3.92l1.11-.51-1.63-5.3h-.68l-.77.64c-1.2-.51-2.56-.81-4.02-.8-4.53.01-7.47 2.62-7.46 6.55.01 3.97 3.3 5.12 6.38 6.14 3.04 1.02 5.13 1.61 5.13 3.88 0 1.41-1.06 2.48-3.11 2.48-2.86.01-5.04-1.87-7.66-5.2l-1.15.43 1.68 6.66h.73l1.24-.9c1.41.68 2.99 1.06 4.74 1.06 4.34-.01 7.93-2.58 7.92-6.72m-32.9.87c0-2.18.98-3.21 5.97-4.58l.01 6.2c-1.19.94-2.26 1.37-3.33 1.37-1.66 0-2.64-.9-2.65-2.99m9.41 5.71c1.84 0 3.8-.86 5.08-1.76l-.39-1.2c-2.09.39-2.86.09-2.86-1.32l-.02-11.41c-.01-3.42-1.5-5.25-6.33-5.24-5.43.01-9.39 2.92-9.39 5.66 0 1.32.9 2.43 2.44 2.43 1.75 0 2.6-1.16 2.86-2.31.25-1.32-.17-2.31-.82-2.86 1.07-.51 2.13-.77 3.25-.77 1.84 0 2.74.64 2.74 2.3l.01 4.27c-7.64 1.89-11.14 3.57-11.14 7.62.01 3.12 2.02 4.78 5.18 4.78 2.01 0 4.31-.86 6.28-2.4.29 1.4 1.28 2.21 3.11 2.21m-30.31-13.15c-.01-3.46 1.44-5.51 4.26-5.52 1.97 0 3.21 1.4 3.72 4.18l-7.94 2.75c-.04-.47-.04-.94-.04-1.41m13.39 9.08-1.16-.9a6.476 6.476 0 0 1-4.91 2.23c-3.93.01-6.16-2.98-6.98-6.87l12.81-4.3c-.26-4.53-3.6-7-7.83-6.99-5.94.01-10.29 4.8-10.28 10.74.01 5.9 3.78 10.38 10.4 10.36 4.07 0 6.5-1.79 7.95-4.27m-34.01 2.58c-2.44-.34-2.82-.93-2.83-3.28l-.02-9.91c2.05-1.88 3.63-2.83 5.42-2.83 2.09 0 2.69 1.06 2.7 2.99l.02 9.74c0 2.35-.38 2.95-2.81 3.29v1.32l10.98-.02v-1.32c-2.44-.34-2.82-.93-2.83-3.28l-.02-10.21c-.01-3.42-1.46-5.85-5.78-5.84-2.61 0-5.17 1.55-7.68 3.69l-.03-16.92h-1.58l-6.87 4.5v.94l3.12-.01.04 23.88c0 2.35-.38 2.95-2.81 3.29v1.32l10.98-.02v-1.32zm-12.26-.58-.64-1.37c-1.15.51-2.18.77-3.07.77-2.01 0-2.52-1.02-2.52-2.43l-.02-12.86 5.43-.01v-2.44l-5.43.01-.01-3.97h-.77l-7.68 5.06v1.37l3.12-.01.01 13.98c0 2.78 1.59 4.27 4.71 4.26 2.43 0 4.82-.82 6.87-2.36m-20.93.63c-2.78-.42-3.16-1.02-3.17-3.67l-.02-8.8c.85-1.54 1.66-2.65 2.51-3.42 0 1.67 1.16 2.73 2.61 2.73s2.86-1.16 2.86-3.38c0-1.88-1.07-3.03-2.95-3.03-2.09 0-3.71 1.76-5.25 4.24l-.01-4.32h-1.88l-6.19 4.07v.94l2.95-.01.02 11.36c0 2.35-.38 2.95-2.81 3.29v1.32l11.32-.02.01-1.3zm-30.87-10.92c-.01-3.85 1.66-6.28 5.16-6.29 4.53-.01 5.86 5.54 5.87 10.63.01 3.85-1.66 6.28-5.16 6.29-4.52.01-5.86-5.55-5.87-10.63m16.37 1.89c-.01-5.6-3.78-10.29-10.66-10.28-6.92.01-11.06 5.02-11.05 10.83.01 5.6 3.78 10.29 10.66 10.28 6.93-.01 11.06-5.02 11.05-10.83m-27.88-13.32c-.01-5 1.4-6.28 3.83-6.97v-1.32l-10.34.02v1.32c2.44.68 3.85 1.96 3.86 6.96l.03 15.04-21.83-21.96c-1.2-1.19-1.67-1.32-2.44-1.32l-8.07.01v1.32c1.75.17 2.78.85 4.79 2.77.64.6 1.24 1.32 1.24 2.52l.03 17.13c.01 5-1.4 6.28-3.83 6.97v1.32l10.34-.02v-1.32c-2.44-.68-3.85-1.96-3.86-6.96l-.03-16.15 24.57 24.61h1.75l-.04-23.97z"></path></g></svg>